<svg data-v-0dd9719b="" version="1.0" xmlns="http://www.w3.org/2000/svg" xmlns:xlink="http://www.w3.org/1999/xlink" width="100%" height="100%" viewBox="0 0 340.000000 250.000000" preserveAspectRatio="xMidYMid meet" color-interpolation-filters="sRGB" style="margin: auto;"> <rect data-v-0dd9719b="" x="0" y="0" width="100%" height="100%" fill="#fff" fill-opacity="1" class="background"></rect> <rect data-v-0dd9719b="" x="0" y="0" width="100%" height="100%" fill="url(#watermark)" fill-opacity="1" class="watermarklayer"></rect> <g data-v-0dd9719b="" fill="#333" class="icon-text-wrapper icon-svg-group iconsvg" transform="translate(47.63999938964844,94.93536186218262)"><g class="iconsvg-imagesvg" transform="translate(0,0)"><g><rect fill="#333" fill-opacity="0" stroke-width="2" x="0" y="0" width="60" height="60.12927794758731" class="image-rect"></rect> <svg x="0" y="0" width="60" height="60.12927794758731" filtersec="colorsb8281859355" class="image-svg-svg primary" style="overflow: visible;"><svg xmlns="http://www.w3.org/2000/svg" viewBox="-0.007460296154022217 0.015159445814788342 99.73863220214844 99.95350646972656"><path d="M47.2.36a10 10 0 0 1 9.62 2.53 10.11 10.11 0 0 1 2.47 10 9.92 9.92 0 0 1-9 7 9.81 9.81 0 0 1-8.77-4.49A10 10 0 0 1 47.2.36z" fill="#eb2568"></path><path d="M70.85 9.74c1.28-1.28 2.85-2.55 4.77-2.43a5.74 5.74 0 0 1 5.76 5.82c0 2.37-1.79 4.11-3.33 5.66C68.59 28.15 59.36 37.73 49.81 47 41 38.5 32.54 29.7 23.87 21.09c-2-2-4.66-3.73-5.46-6.61a5.72 5.72 0 0 1 4.66-7.07A6.56 6.56 0 0 1 28.8 9.7c4.22 4.38 8.55 8.67 12.83 13a11.15 11.15 0 0 0 8.17 3.63 10.57 10.57 0 0 0 7.67-3.22c4.53-4.37 8.95-8.89 13.38-13.37z" fill="#eb2568"></path><path d="M81.57 20.92c1.35-1.4 3.05-2.78 5.12-2.62a5.69 5.69 0 0 1 5.61 6.34c-.19 2.14-1.74 3.77-3.23 5.16-4.07 3.78-7.87 7.84-11.84 11.71a11.71 11.71 0 0 0-3.69 10.16 12.37 12.37 0 0 0 4 7c4 3.87 7.82 7.86 11.8 11.71 1.37 1.36 2.79 2.93 3 5a5.69 5.69 0 0 1-5.61 6.34c-2.3.12-4.07-1.57-5.57-3.08-9.36-9.61-19-19-28.28-28.62 3-3.34 6.31-6.42 9.46-9.63 6.37-6.51 12.84-12.95 19.23-19.47z" fill="#f2a23d"></path><path d="M87.8 40.18a10 10 0 1 1-7 14.31 10.75 10.75 0 0 1-.86-6.23 10 10 0 0 1 7.86-8.08z" fill="#f2a23d"></path><path d="M7.36 23.32a5.55 5.55 0 0 1 5.57-4.94c2.12 0 3.88 1.38 5.3 2.81 6.92 7.06 13.94 14 20.92 21 2.54 2.59 5.21 5.06 7.61 7.78C38.31 58.82 29.51 67.3 21 76c-2.18 2-4 4.93-7.14 5.53a5.63 5.63 0 0 1-6.54-5.28c-.22-2.71 1.9-4.73 3.68-6.48l12-12a11.09 11.09 0 0 0 2.93-10.26 12.88 12.88 0 0 0-4-6.49c-4.1-3.89-8-8-12.05-12-1.57-1.41-2.88-3.45-2.52-5.7z" fill="#2ea9db"></path><path d="M7.09 40.47c5.71-1.9 12.47 2.52 12.68 8.6A10 10 0 0 1 11 59.94a10.06 10.06 0 0 1-10.6-7c-1.55-5.11 1.46-11.12 6.69-12.47z" fill="#2ea9db"></path><path d="M42.43 60.14c2.44-2.37 4.74-4.89 7.36-7 1 .88 2.05 1.74 3 2.67Q64.91 67.86 77 80c1.82 1.83 4.2 3.65 4.34 6.46a5.67 5.67 0 0 1-5.73 6.22c-2.63.1-4.54-2-6.17-3.73-2.88-3.26-6.23-6.06-9.2-9.24-1.85-1.84-3.62-3.9-6-5.06a10.76 10.76 0 0 0-11.84 2.08C38.21 81 33.88 85.1 29.78 89.44c-1.59 1.72-3.64 3.44-6.14 3.24A5.68 5.68 0 0 1 18.35 86c.57-2.24 2.3-3.91 3.82-5.56 6.72-6.79 13.53-13.5 20.26-20.3z" fill="#92c254"></path><path d="M47.3 80.34a10.36 10.36 0 0 1 8.7 1.75 11.15 11.15 0 0 1 3.38 5.37 10.08 10.08 0 0 1-3.3 10.31A10 10 0 0 1 40 88.1a10.21 10.21 0 0 1 7.3-7.76z" fill="#92c254"></path></svg></svg> <!----></g></g> <g transform="translate(67,1.3455753326416016)"><g data-gra="path-name" fill-rule="" class="tp-name iconsvg-namesvg" transform="translate(0,0)"><g transform="scale(1)"><g><path d="M20.57-36.56L20.57-36.56Q24.26-34.8 23.73-34.63L23.73-34.63Q22.32-34.1 20.57-31.64L20.57-31.64Q20.04-31.11 19.86-30.76L19.86-30.76 34.98-30.76 37.27-33.05 40.96-29.71 19.34-29.71Q15.47-23.73 11.6-20.21L11.6-20.21 11.07-20.74Q16.35-27.42 20.57-36.56ZM4.92-35.16L5.27-35.68Q9.67-34.28 10.72-32.7L10.72-32.7Q12.13-29.88 9.32-28.83L9.32-28.83Q9.14-29 8.61-30.06L8.61-30.06Q7.38-33.4 4.92-35.16L4.92-35.16ZM13.01-29.71L13.01-29.71 13.54-29.53Q8.44-14.24 7.56-9.84L7.56-9.84Q7.38-7.56 7.73-2.99L7.73-2.99Q8.09 1.93 7.21 2.64L7.21 2.64Q4.92 2.81 4.22 1.23L4.22 1.23Q4.22 0.7 4.75-2.11L4.75-2.11Q5.63-6.5 5.27-7.21L5.27-7.21Q4.75-8.61 1.41-8.96L1.41-8.96 1.41-9.32Q5.27-8.79 5.45-10.37L5.45-10.37Q6.86-13.71 9.67-21.09L9.67-21.09Q13.01-30.23 13.01-29.71ZM1.05-26.02L1.41-26.54Q5.45-24.79 6.68-23.2L6.68-23.2Q8.26-20.57 5.27-18.98L5.27-18.98Q4.75-18.98 4.22-20.39L4.22-20.39Q3.34-23.73 1.05-26.02L1.05-26.02ZM32.87-24.61L34.8-26.37 37.44-23.91Q37.44-23.91 37.09-23.73L37.09-23.73Q35.86-23.03 35.68-22.32L35.68-22.32Q35.51-21.45 35.51-18.98L35.51-18.98Q35.33-16.35 35.33-15.47L35.33-15.47 37.44-15.47 39.38-17.93 42.89-14.77 42.71-14.59 35.33-14.59 34.8-4.92 36.56-4.92 38.5-7.21 42.01-4.22 41.66-3.87 34.8-3.87Q34.45 0.53 32.87 2.46L32.87 2.46Q32.17 3.52 28.65 4.92L28.65 4.92Q29 2.11 23.55 0.88L23.55 0.88 23.55 0.35Q29.36 1.05 29.88 0.7L29.88 0.7Q31.64 0 31.99-3.87L31.99-3.87 16.7-3.87Q16.7-4.04 16.17-3.34L16.17-3.34Q15.64-2.81 15.47-2.81L15.47-2.81Q15.12-2.81 12.83-4.92L12.83-4.92Q13.89-5.45 14.24-6.33L14.24-6.33Q14.59-6.86 15.29-11.95L15.29-11.95Q15.64-13.71 15.82-14.59L15.82-14.59 12.48-14.59 11.6-14.24 10.9-15.47 16.17-15.47 18.11-26.37 20.39-24.61 32.87-24.61ZM19.86-22.68L19.86-22.68 18.63-15.47 32.7-15.47 33.22-23.55 21.09-23.55Q19.86-23.55 19.86-22.68ZM23.03-22.85L23.38-23.2Q26.37-21.62 27.6-20.04L27.6-20.04Q28.65-17.4 26.37-16.35L26.37-16.35Q25.66-16 25.49-17.4L25.49-17.4Q24.96-20.74 23.03-22.85L23.03-22.85ZM32.7-14.59L18.46-14.59 16.52-4.92 31.99-4.92Q32.7-7.91 32.7-14.59L32.7-14.59ZM22.15-13.18L22.68-13.54Q25.84-11.6 26.89-9.32L26.89-9.32Q27.42-6.68 24.96-5.98L24.96-5.98Q24.43-6.15 24.43-7.73L24.43-7.73Q24.26-11.25 22.15-13.18L22.15-13.18ZM65.04-37.27L65.04-37.27Q69.61-35.68 69.61-35.51L69.61-35.51Q69.61-35.33 68.73-34.45L68.73-34.45Q68.2-33.93 68.2-33.93L68.2-33.93 68.03-29.71 81.39-29.71 83.67-32.34 87.54-29 87.54-28.65 67.85-28.65 67.68-22.85 79.45-22.85Q79.63-22.85 80.33-23.91L80.33-23.91Q81.04-24.79 81.04-24.79L81.04-24.79Q83.32-23.2 84.73-21.8L84.73-21.8Q84.73-21.8 83.85-21.09L83.85-21.09Q82.97-20.39 82.97-20.21L82.97-20.21Q82.97-14.24 83.14-6.33L83.14-6.33Q83.14 1.76 82.97 2.29L82.97 2.29Q82.27 4.22 78.22 5.45L78.22 5.45Q78.22 5.45 78.05 5.27L78.05 5.27Q77.87 2.81 73.13 1.23L73.13 1.23 73.13 0.7Q79.8 1.58 80.16 1.05L80.16 1.05Q80.68-2.99 80.16-21.8L80.16-21.8 72.07-21.8Q74.88-19.69 74.71-19.51L74.71-19.51Q74.71-19.34 74.18-19.16L74.18-19.16Q73.48-18.98 72.77-18.28L72.77-18.28Q71.72-16.88 69.26-14.24L69.26-14.24Q68.73-13.54 68.38-13.18L68.38-13.18 73.13-13.18 74.88-15.29 78.4-12.48 78.22-12.13 67.68-12.13 67.68-6.86 73.3-6.86 75.41-8.96 78.4-5.98 78.22-5.8 67.68-5.8 67.68 3.16Q66.97 3.87 65.04 4.22L65.04 4.22 65.04-5.8 58.01-5.8 56.25-5.45 55.2-6.86 65.04-6.86 65.04-12.13 58.18-12.13 56.43-11.95 55.55-13.18 62.4-13.18Q62.23-13.36 62.05-14.24L62.05-14.24Q61.7-17.93 58.71-20.21L58.71-20.21 59.24-20.74Q64.51-17.75 65.04-15.64L65.04-15.64Q65.04-14.41 63.81-13.18L63.81-13.18 67.32-13.18Q69.79-17.4 71.54-21.8L71.54-21.8 55.37-21.8Q53.26-22.15 53.61-19.86L53.61-19.86Q53.61-18.81 53.26 4.04L53.26 4.04Q51.5 5.1 50.1 5.27L50.1 5.27Q50.8-8.44 50.8-24.43L50.8-24.43 54.14-22.85 64.69-22.85 65.04-28.65 48.52-28.65 46.76-28.3 45.7-29.71 65.04-29.71Q65.21-35.51 65.04-37.27ZM111.09-31.46L111.09-36.56 115.14-34.63Q115.14-34.45 114.26-33.93L114.26-33.93Q113.38-33.4 113.38-33.22L113.38-33.22 113.38-31.46 126.39-31.46 128.32-33.93 132.36-30.76 132.36-30.41 113.38-30.41 113.38-27.25 121.82-27.25Q122.17-27.25 123.57-29L123.57-29Q125.16-28.3 126.56-26.89L126.56-26.89Q126.74-26.72 125.68-26.02L125.68-26.02Q125.16-25.31 125.16-25.31L125.16-25.31 125.16-15.47Q124.63-14.41 122.7-14.24L122.7-14.24 122.7-15.29 113.38-15.29 113.38-10.9Q118.83-10.9 122.7-11.43L122.7-11.43Q121.64-12.3 119.53-13.71L119.53-13.71 119.88-14.06Q128.32-10.9 129.73-8.96L129.73-8.96Q131.84-5.45 129.02-5.1L129.02-5.1Q128.67-5.1 127.62-6.5L127.62-6.5Q125.68-9.14 124.1-10.37L124.1-10.37Q113.55-9.49 100.9-8.26L100.9-8.26Q94.92-7.73 94.75-7.73L94.75-7.73Q93.16-9.84 93.34-10.72L93.34-10.72Q98.26-10.55 107.05-10.72L107.05-10.72Q110.04-10.72 111.09-10.72L111.09-10.72 111.09-15.29 102.13-15.29 102.13-14.06Q101.43-13.18 99.67-13.18L99.67-13.18Q99.84-19.34 99.84-29.18L99.84-29.18 103.18-27.25 111.09-27.25 111.09-30.41 95.63-30.41 93.87-29.88 92.81-31.46 111.09-31.46ZM111.09-26.19L103.54-26.19Q101.95-26.37 102.13-25.14L102.13-25.14 102.13-21.62 111.09-21.62 111.09-26.19ZM122.7-21.62L122.7-26.19 113.38-26.19 113.38-21.62 122.7-21.62ZM111.09-16.35L111.09-20.57 102.13-20.57 102.13-16.35 111.09-16.35ZM122.7-16.35L122.7-20.57 113.38-20.57 113.38-16.35 122.7-16.35ZM109.69-7.21L109.86-7.73Q115.14-5.1 114.96-4.22L114.96-4.22Q115.49-1.58 113.03-1.05L113.03-1.05Q112.32-1.05 112.15-2.46L112.15-2.46Q111.8-5.1 109.69-7.21L109.69-7.21ZM102.3 0.7L102.3-6.33 106.52-4.57Q106.52-4.39 105.82-4.04L105.82-4.04Q104.77-3.69 104.77-3.34L104.77-3.34 104.77-0.35Q104.77-0.18 104.77 0.18L104.77 0.18Q104.24 1.41 106.88 1.76L106.88 1.76Q115.84 2.46 118.48 1.23L118.48 1.23Q119.53 1.05 120.41-4.39L120.41-4.39 120.94-4.39Q120.59 0.18 122.52 1.05L122.52 1.05Q122.87 1.05 122.87 1.23L122.87 1.23Q122.34 2.99 120.23 3.87L120.23 3.87Q118.48 4.39 112.68 4.39L112.68 4.39Q107.58 4.39 105.47 4.04L105.47 4.04Q102.3 3.52 102.3 1.41L102.3 1.41Q102.3 0.88 102.3 0.7L102.3 0.7ZM122.87-5.98L123.05-6.33Q127.62-4.75 130.08-1.93L130.08-1.93Q132.54 1.58 129.38 2.99L129.38 2.99Q128.67 2.99 128.14 1.41L128.14 1.41Q126.74-2.81 122.87-5.98L122.87-5.98ZM97.38-5.45L97.38-5.45 97.91-5.45Q98.26-0.7 97.56 1.41L97.56 1.41Q96.86 3.69 94.57 4.04L94.57 4.04Q92.11 4.04 92.99 1.93L92.99 1.93Q93.16 1.76 93.69 1.41L93.69 1.41Q97.21-1.23 97.38-5.45ZM153.11-36.74L153.28-37.09Q157.15-36.74 159.79-34.45L159.79-34.45Q160.66-32.7 158.38-30.94L158.38-30.94 171.39-30.94Q171.56-30.94 172.44-32.17L172.44-32.17Q173.5-33.22 173.5-33.22L173.5-33.22Q176.84-30.94 177.89-29.53L177.89-29.53Q177.89-29.36 177.19-29.36L177.19-29.36Q173.5-29 169.63-25.49L169.63-25.49 169.28-26.02Q172.62-30.06 171.91-29.88L171.91-29.88 143.61-29.88Q143.26-25.31 141.33-23.73L141.33-23.73Q139.75-22.68 138.69-23.38L138.69-23.38Q137.64-24.08 138.34-25.49L138.34-25.49Q138.52-25.84 139.22-26.37L139.22-26.37Q142.03-28.65 142.73-32.7L142.73-32.7 143.09-32.7 143.44-30.94 156.97-30.94Q155.92-35.16 153.11-36.74L153.11-36.74ZM164.88-24.26L167.17-26.89 170.86-23.55 170.68-23.2 159.61-23.2Q159.61-22.85 159.26-22.85L159.26-22.85Q157.5-22.32 154.51-19.69L154.51-19.69Q158.03-16.88 159.79-13.54L159.79-13.54Q165.06-16.7 170.51-22.15L170.51-22.15Q173.67-18.98 173.5-18.81L173.5-18.81Q173.32-18.63 173.14-18.81L173.14-18.81Q172.09-18.98 170.33-18.11L170.33-18.11Q166.64-15.82 163.3-14.06L163.3-14.06Q167.17-4.04 178.77-1.58L178.77-1.58 178.77-1.05Q175.08-1.23 174.2 1.05L174.2 1.05Q174.02 1.23 174.02 1.23L174.02 1.23Q165.06-4.04 162.42-13.71L162.42-13.71 160.14-12.66Q161.19-9.84 161.37-5.27L161.37-5.27Q161.37-0.88 160.31 1.41L160.31 1.41Q158.73 4.57 154.86 5.45L154.86 5.45Q154.86 5.45 154.86 5.27L154.86 5.27Q154.69 2.29 149.94 0.88L149.94 0.88 149.94 0.53Q150.64 0.53 151.7 0.7L151.7 0.7Q155.21 1.23 156.45 1.05L156.45 1.05Q159.61-0.53 158.73-9.14L158.73-9.14Q148.54 0.53 136.76 4.04L136.76 4.04 136.58 3.52Q149.24-2.11 158.03-12.48L158.03-12.48Q158.03-13.89 156.8-15.12L156.8-15.12Q147.66-7.03 137.64-3.16L137.64-3.16 137.46-3.69Q149.94-10.9 155.04-17.58L155.04-17.58Q154.69-18.11 153.81-18.98L153.81-18.98Q146.43-13.71 137.64-11.07L137.64-11.07 137.64-11.78Q149.41-17.05 154.69-23.2L154.69-23.2 147.3-23.2 145.2-23.03 144.32-24.26 164.88-24.26Z" transform="translate(-1.0499999523162842, 37.27000045776367)"></path></g> <!----> <!----> <!----> <!----> <!----> <!----> <!----></g></g> <g data-gra="path-slogan" fill-rule="" class="tp-slogan iconsvg-slogansvg" fill="#333" transform="translate(5,48.720001220703125)"><rect x="0" height="1" y="3.8600001335144043" width="38.20500183105469"></rect> <rect height="1" y="3.8600001335144043" width="38.20500183105469" x="129.51499938964844"></rect> <g transform="translate(41.20500183105469,0)"><g transform="scale(1)"><path d="M2.06-5.06L6.56-5.06L6.56-8.58L7.73-8.58L7.73 0L6.56 0L6.56-3.98L2.06-3.98L2.06 0L0.89 0L0.89-8.58L2.06-8.58L2.06-5.06ZM15.19 0L14.34-2.48L10.88-2.48L9.98 0L8.81 0L12.05-8.58L13.36-8.58L16.45 0L15.19 0ZM12.61-7.31L11.25-3.52L13.92-3.52L12.66-7.31L12.61-7.31ZM17.67-8.58L18.84-8.58L18.84 0L17.67 0L17.67-8.58ZM22.22-8.58L26.53-1.64L26.53-8.58L27.66-8.58L27.66 0L26.34 0L21.98-6.94L21.94-6.94L21.94 0L20.81 0L20.81-8.58L22.22-8.58ZM35.11 0L34.27-2.48L30.80-2.48L29.91 0L28.73 0L31.97-8.58L33.28-8.58L36.38 0L35.11 0ZM32.53-7.31L31.17-3.52L33.84-3.52L32.58-7.31L32.53-7.31ZM38.81-8.58L43.13-1.64L43.13-8.58L44.25-8.58L44.25 0L42.94 0L38.58-6.94L38.53-6.94L38.53 0L37.41 0L37.41-8.58L38.81-8.58ZM50.53-5.06L55.03-5.06L55.03-8.58L56.20-8.58L56.20 0L55.03 0L55.03-3.98L50.53-3.98L50.53 0L49.36 0L49.36-8.58L50.53-8.58L50.53-5.06ZM63.66-3.19L63.66-8.58L64.83-8.58L64.83-3.05Q64.69 0.05 61.31 0.14L61.31 0.14Q58.17 0.05 58.03-2.86L58.03-2.86L58.03-8.58L59.20-8.58L59.20-3.19Q59.25-0.84 61.36-0.80L61.36-0.80Q63.66-0.84 63.66-3.19L63.66-3.19ZM66.80-8.58L67.97-8.58L67.97 0L66.80 0L66.80-8.58ZM69.23-1.92L69.23-2.77L70.31-2.77L70.31-2.16Q70.31-0.75 71.63-0.75L71.63-0.75Q72.98-0.75 72.98-2.25L72.98-2.25L72.98-8.58L74.16-8.58L74.16-2.30Q74.11 0.09 71.67 0.14L71.67 0.14Q69.38 0.09 69.23-1.92L69.23-1.92ZM76.13-8.58L77.30-8.58L77.30 0L76.13 0L76.13-8.58ZM84.94 0L84.09-2.48L80.63-2.48L79.73 0L78.56 0L81.80-8.58L83.11-8.58L86.20 0L84.94 0ZM82.36-7.31L81-3.52L83.67-3.52L82.41-7.31L82.36-7.31Z" transform="translate(-0.890625, 8.578125)"></path></g></g></g></g></g><defs v-gra="od"></defs></svg>